PathFileType	4	(X/Y/Z)	RBDS028\RBDS028runT25.trc
DataRate	CameraRate	NumFrames	NumMarkers	Units	OrigDataRate	OrigDataStartFrame	OrigNumFrames
150.000000	150.000000	6	33	mm	150.000000	2250	4500
Frame#	Time	L.ASIS			L.Heel.Bottom			L.Heel.Lateral			L.Heel.Top			L.Iliac.Crest			L.MT1			L.MT5			L.PSIS			L.Shank.Bottom.Lateral			L.Shank.Bottom.Medial			L.Shank.Top.Lateral			L.Shank.Top.Medial			L.Thigh.Bottom.Lateral			L.Thigh.Bottom.Medial			L.Thigh.Top.Lateral			L.Thigh.Top.Medial			R.ASIS			R.ASY			R.Heel.Bottom			R.Heel.Lateral			R.Heel.Top			R.Iliac.Crest			R.MT1			R.MT5			R.PSIS			R.Shank.Bottom.Lateral			R.Shank.Bottom.Medial			R.Shank.Top.Lateral			R.Shank.Top.Medial			R.Thigh.Bottom.Lateral			R.Thigh.Bottom.Medial			R.Thigh.Top.Lateral			R.Thigh.Top.Medial			
		X1	Y1	Z1	X2	Y2	Z2	X3	Y3	Z3	X4	Y4	Z4	X5	Y5	Z5	X6	Y6	Z6	X7	Y7	Z7	X8	Y8	Z8	X9	Y9	Z9	X10	Y10	Z10	X11	Y11	Z11	X12	Y12	Z12	X13	Y13	Z13	X14	Y14	Z14	X15	Y15	Z15	X16	Y16	Z16	X17	Y17	Z17	X18	Y18	Z18	X19	Y19	Z19	X20	Y20	Z20	X21	Y21	Z21	X22	Y22	Z22	X23	Y23	Z23	X24	Y24	Z24	X25	Y25	Z25	X26	Y26	Z26	X27	Y27	Z27	X28	Y28	Z28	X29	Y29	Z29	X30	Y30	Z30	X31	Y31	Z31	X32	Y32	Z32	X33	Y33	Z33	

2251	15	2134.339488030536	867.5939840747616	910.3283367587898	1592.540578770511	334.7447482377304	1017.81044824852	1601.51203744603	313.8126597609648	967.4457074634092	1636.451627630001	333.439108632633	1006.747696969135	2080.177227500354	930.2370966243094	887.2489914048074	1648.282343881859	119.9657724060134	1022.139860345558	1608.674018277452	163.163227393819	924.9810429293505	1984.000097018094	900.7602447140468	985.0032557521879	1714.095508553206	318.7293869514577	932.5769300756875	1700.771547682673	347.0294160349832	973.3360241760007	1774.187701321189	369.7502806599918	913.8973398464332	1766.134958386064	398.7734842038584	957.3842560757645	2026.456232206746	538.7637020768136	871.4935636512809	1964.658108700207	549.8563611611777	908.1457196362259	2037.715395806035	647.6052629593578	858.9820566144359	1979.928534546775	657.4583353969681	896.9712284706807	2133.305477738947	881.5819732199648	1145.792702170836	2348.188211075182	84.19366458040381	1092.62409825356	2171.601104185009	26.55078032857888	1059.283222342601	2196.90402824483	39.84652832863942	1106.45734085695	2179.686757355191	70.68852309789006	1066.960731353373	2079.227051352623	941.88788835736	1171.135134658203	2389.924440991138	51.54036677738755	1040.888467821772	2347.04093202789	26.47395124432512	1144.709971142953	1984.096322611199	897.4507824796005	1078.521498103815	2220.245516646622	161.6839209584751	1135.359815103288	2186.113190872702	165.0827717105968	1090.58805085583	2198.988862017886	237.8744819522175	1153.607996064551	2169.376030053787	241.065003195672	1108.647548297425	2183.857864314024	543.0076133887385	1189.525639264559	2129.226268883931	519.2406770113863	1149.611140075682	2133.365079261495	641.2026005928597	1199.813264502589	2080.357362089653	617.1929260690274	1163.66376428005	
2252	15.00666666666667	2135.83109885522	864.0453439138105	911.4766673143419	1598.855053361453	343.9630365977997	1018.249267241861	1607.366911713343	323.2836811806266	967.6642080373841	1642.748499873099	341.3351922947505	1007.430006922011	2080.927718994691	925.9929044563351	887.7571424550486	1647.435014600251	127.5748470469933	1020.890983405302	1609.937505423847	173.1335290499672	923.7895644583272	1984.64452573545	895.7870782932152	985.0465503700294	1719.93386597426	323.5663349227669	932.4857686399482	1707.86942138263	352.5728250495684	973.164611636146	1782.010818284676	372.1640727790876	913.4760253824666	1775.151602511802	401.6945186272176	956.8335676661344	2035.065113313557	533.0301363314128	870.5001528391876	1973.043145217518	542.1987001666412	907.3996094315019	2043.441417144171	642.2999548489119	858.7737520870318	1985.342625795507	650.2759089375458	896.7886472562909	2132.793931530348	877.8209676171911	1147.373801833329	2332.906636860726	80.68706322705631	1088.195953008126	2155.415619754169	24.87032600566804	1056.951834167675	2180.675003751272	39.55375531579856	1103.727861589482	2164.332961645377	69.19370130114514	1062.908522753627	2079.776073734335	937.8015559325177	1172.176404365444	2374.635923345334	45.76837584935351	1038.024045491315	2330.629829696556	25.67233584706733	1143.125908372948	1983.819348495862	892.9443601365975	1078.517170994668	2209.177875051741	157.9963085084694	1131.82800195455	2174.431528020275	163.269279726333	1087.787736629303	2190.978737755528	234.6234388813594	1151.266289581301	2161.023446167281	239.5152363689315	1106.716857653541	2183.358376706327	539.4555632347777	1189.345493792763	2128.877914579396	515.7641344184017	1149.164946632796	2132.734702353171	637.5854364543458	1199.637154183655	2079.75739953989	613.5993233721304	1163.519421017526	
2253	15.01333333333333	2137.237765950168	860.1746412467286	912.7403545079488	1606.328366320725	352.6830691611499	1018.421265873846	1614.456947176466	332.2327416444654	967.6389522056588	1650.157864699685	348.7851565861055	1007.817121674284	2081.899312512519	921.164676017616	888.2028085191398	1647.986744347369	135.0349570944314	1019.57399762403	1612.695049046466	182.7150862744747	922.4945057018999	1985.056376353944	890.4227892101113	984.9229087824582	1726.842462766797	328.0518567322115	932.2527463779414	1715.978895550649	357.7269065543428	972.8091731911753	1790.754396012281	374.2301419392692	912.9331983664306	1784.99175782001	404.2371346291171	956.1407454846208	2043.752736335912	527.3312722876335	869.5273412955049	1981.604962957243	534.5600676800931	906.7290880436969	2049.211127312663	636.9430080310817	858.585313288199	1990.895677728629	643.0293561774203	896.6896558561252	2131.893208207248	873.9095977410125	1148.99654258731	2316.929861407212	77.9443607130911	1083.883624332239	2138.700191305299	23.48379830959161	1055.098670093442	2164.029873193743	39.60651356612232	1101.398090028564	2148.348741417429	67.99429497193731	1059.349408121944	2079.879881510509	933.388086450361	1173.195019251752	2358.637966370723	41.09262638275834	1035.274351055907	2313.849122069941	25.54821936200242	1141.611805352801	1983.193133549609	888.217781679494	1078.28885819835	2197.867300364632	154.8524039714192	1128.648305570353	2162.391075565423	162.050981313089	1085.545536777254	2183.029932153738	231.8412474503695	1149.31006765686	2152.567699306028	238.4841469537807	1105.346634772707	2182.978867705159	535.9410861202534	1189.168971638531	2128.646126592108	512.2834968758295	1148.780675677113	2132.142430062279	633.964086387611	1199.516352817952	2079.193201081602	609.9529431794834	1163.473783301631	
2254	15.02	2138.497264073392	856.0606623266536	914.0942328959399	1614.951085045404	360.8550050860019	1018.259796018506	1622.763839531996	340.5757928042701	967.3164195441739	1658.680457286093	355.7267403775348	1007.848278648867	2083.046142216356	915.8454511247552	888.5713443410577	1649.939414040697	142.2165365896876	1018.18206022886	1616.914720455838	191.7376431062971	921.0880093902196	1985.203602101389	884.8042302529241	984.6220719977871	1734.808432297451	332.1223166088311	931.8527103516557	1725.065411859922	362.4267663119101	972.2451562952093	1800.389313625032	375.9166342380354	912.2627778735346	1795.623381630001	406.3688443030862	955.3018143236156	2052.475140610228	521.7691081077672	868.6170838611409	1990.290615693441	527.0564796372151	906.1461433619634	2054.996450423714	631.6225123146737	858.4410948334769	1996.552136086917	635.8255969972248	896.672215975631	2130.599918918566	869.9417644236684	1150.619750651283	2300.538970588643	75.9551184309345	1079.983837132442	2121.7490851882	22.46182253818604	1053.72451245609	2147.237524405492	39.93963730370407	1099.527062408573	2132.014907204995	67.13984273536232	1056.420380305131	2079.446379741217	928.6803615533644	1174.159599922708	2342.221192454434	37.62829519729229	1032.849757743341	2296.951298279401	25.92264348152032	1140.27202559235	1982.231336535473	883.3785149402838	1077.818864152361	2186.438778080872	152.3425681695596	1126.008311799038	2150.201028315059	161.4726483668809	1083.976861924249	2175.177047622231	229.5891624864306	1147.858801723699	2144.115740186591	237.9958563697609	1104.609613955962	2182.632278724122	532.518482413243	1189.069702461308	2128.449648700588	508.8623644179306	1148.512428696214	2131.530439063356	630.4083115165025	1199.497740902841	2078.615115287643	606.3333223940995	1163.540931802038	
2255	15.02666666666667	2139.543953910595	851.7911326078118	915.4962257394853	1624.657417358493	368.4211264100915	1017.686204680192	1632.231618287447	348.2247756931993	966.6367635738548	1668.263043465905	362.1012218357138	1007.473287769635	2084.276260966901	910.16523694502	888.8501641890609	1653.289384642622	148.9965033758318	1016.723516916785	1622.574438193705	200.0349872055353	919.5625424073396	1985.068274436098	879.0849565743974	984.1454565022962	1743.799942484837	335.7223420213384	931.2674899783331	1735.074942378283	366.6223482964832	971.4511093337478	1810.875090656559	377.1989221370848	911.4611834491956	1807.003686443272	408.0713557469094	954.3104937397337	2061.215682489629	516.4305174590645	867.8019198612888	1999.069021726549	519.7789159989418	905.651305561899	2060.782547671784	626.41575694348	858.3580777481787	2002.283140097866	628.7500338414784	896.7212355341009	2128.937314883153	866.0144029156055	1152.20083545244	2283.962561873347	74.64113431143032	1076.740733842153	2104.77712948744	21.84465183683625	1052.811672871106	2130.482932134662	40.47935703120493	1098.150486641776	2115.546598516994	66.65460232453643	1054.210613319391	2078.398776982186	923.7246872407308	1175.035515130022	2325.615087034516	35.35485074512727	1030.919600136071	2280.105463460189	26.59312683144669	1139.202522622379	1980.968507397768	878.5364033016142	1077.105072332491	2174.959017378146	150.4949382788395	1124.05345664346	2138.00970536019	161.5254425420464	1083.150733133395	2167.392957279963	227.8755230295142	1147.003111485476	2135.715897463866	238.0282808957656	1104.545338723792	2182.216763687241	529.2325248629571	1189.129787654986	2128.188273432132	505.5522829422126	1148.428500961942	2130.832455485077	626.9827579185138	1199.624951587681	2077.961388525744	602.8142731613025	1163.740124320006	
2256	15.03333333333333	2140.315766106559	847.458182308761	916.8893148672021	1635.327199269847	375.316289310604	1016.620098968789	1642.765613866148	355.089607703563	965.5412924324842	1678.800009854837	367.8548843584337	1006.656559379156	2085.45699370243	904.283997780072	889.0302220446389	1658.02938412696	155.2602549928251	1015.221360904301	1629.658207197648	207.4483191434509	917.914690163791	1984.649333130107	873.4246121373017	983.5085350491214	1753.764864773441	338.8078052714353	930.4868388968265	1745.934025732566	370.2791255708363	970.4112235896494	1822.157713889811	378.063779003157	910.5284995187343	1819.074862399793	409.3428369675601	953.1606820013816	2069.98104379059	511.389853253175	867.1023737562205	2007.930029368859	512.7976352990837	905.2347535501824	2066.567199673045	621.3909632734933	858.3439983332181	2008.068320608865	621.8692995877793	896.809663545988	2126.9560884281	862.2190358524514	1153.697297846403	2267.370422420217	73.87854951057992	1074.315684201764	2087.919841159564	21.63733778665576	1052.323777047522	2113.871677229265	41.15204990532895	1097.273747165515	2099.090404150427	66.53408479605811	1052.750223574585	2076.687301977662	918.583296721039	1175.788265716358	2308.98195315939	34.13950302064517	1029.590198248433	2263.403449185755	27.36534116946171	1138.473308678059	1979.457525760095	873.7983974858435	1076.164976112325	2163.440603224872	149.2755488272319	1122.866604326645	2125.899239118332	162.1483971885134	1083.078440222123	2159.597631380155	226.6562238183987	1146.791175922379	2127.357526425174	238.5138589223021	1105.152383652398	2181.615161616048	526.1113515205884	1189.431812951153	2127.74083490256	502.3885618770627	1148.604257229338	2129.973898638991	623.7406154762466	1199.935197867036	2077.157576931747	599.4597538759662	1164.094169297721	
